# xmcd
#
# Track frame offsets: 
#        150
#        16935
#        34483
#        53100
#        75020
#        98075
#        115435
#        129240
#        147085
#        169770
#        181215
#
# Disc length: 2625 seconds
#
# Revision: 0
# Processed by: cddbd v1.5.2PL0 Copyright (c) Steve Scherf et al.
# Submitted via: ExactAudioCopy v0.95b4
#
DISCID=820a3f0b
DTITLE=Joss Stone - LP1 [Bonus Track]
DYEAR=2011
DGENRE=R&B
TTITLE0=Newborn
TTITLE1=Karma
TTITLE2=Don't Start Lying To Me Now
TTITLE3=Last One To Know
TTITLE4=Drive All Night
TTITLE5=Cry Myself To Sleep
TTITLE6=Somehow
TTITLE7=Landlord
TTITLE8=Boat Yard
TTITLE9=Take Good Care
TTITLE10=The Sound
EXTD=
EXTT0=
EXTT1=
EXTT2=
EXTT3=
EXTT4=
EXTT5=
EXTT6=
EXTT7=
EXTT8=
EXTT9=
EXTT10=
PLAYORDER=
